<svg width="240" height="48" viewBox="0 0 240 48" fill="none" xmlns="http://www.w3.org/2000/svg">
<path d="M0 24.5C0 13.7304 8.73045 5 19.5 5H64.5C75.2696 5 84 13.7304 84 24.5C84 35.2696 75.2696 44 64.5 44H19.5C8.73045 44 0 35.2696 0 24.5Z" fill="#E93F30"/>
<path d="M9 24.5C9 17.8726 14.3726 12.5 21 12.5H64.5C71.1274 12.5 76.5 17.8726 76.5 24.5C76.5 31.1274 71.1274 36.5 64.5 36.5H21C14.3726 36.5 9 31.1274 9 24.5Z" fill="white"/>
<path d="M31.5 26.75C31.5 29.6495 29.1495 32 26.25 32C23.3505 32 21 29.6495 21 26.75C21 23.8505 23.3505 21.5 26.25 21.5C29.1495 21.5 31.5 23.8505 31.5 26.75Z" fill="#E93F30"/>
<path d="M45 26.75C45 29.6495 42.6495 32 39.75 32C36.8505 32 34.5 29.6495 34.5 26.75C34.5 23.8505 36.8505 21.5 39.75 21.5C42.6495 21.5 45 23.8505 45 26.75Z" fill="#E93F30"/>
<path d="M58.5 26.75C58.5 29.6495 56.1495 32 53.25 32C50.3505 32 48 29.6495 48 26.75C48 23.8505 50.3505 21.5 53.25 21.5C56.1495 21.5 58.5 23.8505 58.5 26.75Z" fill="#E93F30"/>
<path d="M111.147 21.8203H106.481C106.396 21.2166 106.222 20.6804 105.959 20.2116C105.696 19.7358 105.359 19.331 104.947 18.9972C104.535 18.6634 104.059 18.4077 103.519 18.2301C102.987 18.0526 102.408 17.9638 101.783 17.9638C100.653 17.9638 99.6697 18.2443 98.8317 18.8054C97.9936 19.3594 97.3438 20.169 96.8821 21.2344C96.4205 22.2926 96.1896 23.5781 96.1896 25.0909C96.1896 26.6463 96.4205 27.9531 96.8821 29.0114C97.3509 30.0696 98.0043 30.8686 98.8423 31.4084C99.6804 31.9482 100.65 32.218 101.751 32.218C102.369 32.218 102.94 32.1364 103.466 31.973C103.999 31.8097 104.471 31.5717 104.883 31.2592C105.295 30.9396 105.636 30.5526 105.906 30.098C106.183 29.6435 106.374 29.125 106.481 28.5426L111.147 28.5639C111.026 29.5653 110.724 30.5312 110.241 31.4616C109.766 32.3849 109.123 33.2124 108.313 33.9439C107.511 34.6683 106.552 35.2436 105.437 35.6697C104.329 36.0888 103.075 36.2983 101.676 36.2983C99.7301 36.2983 97.9901 35.858 96.456 34.9773C94.929 34.0966 93.7216 32.8217 92.8338 31.1527C91.9531 29.4837 91.5128 27.4631 91.5128 25.0909C91.5128 22.7116 91.9602 20.6875 92.8551 19.0185C93.75 17.3494 94.9645 16.0781 96.4986 15.2045C98.0327 14.3239 99.7585 13.8835 101.676 13.8835C102.94 13.8835 104.112 14.0611 105.192 14.4162C106.278 14.7713 107.241 15.2898 108.079 15.9716C108.917 16.6463 109.599 17.4737 110.124 18.4538C110.657 19.4339 110.998 20.5561 111.147 21.8203ZM118.908 26.5398V36H114.37V14.1818H118.78V22.5234H118.972C119.341 21.5575 119.938 20.8011 120.762 20.2543C121.586 19.7003 122.619 19.4233 123.862 19.4233C124.998 19.4233 125.989 19.6719 126.834 20.169C127.686 20.6591 128.347 21.3658 128.816 22.2891C129.292 23.2053 129.526 24.3026 129.519 25.581V36H124.98V26.3906C124.988 25.3821 124.732 24.5973 124.213 24.0362C123.702 23.4751 122.985 23.1946 122.061 23.1946C121.444 23.1946 120.897 23.326 120.421 23.5888C119.952 23.8516 119.583 24.2351 119.313 24.7393C119.05 25.2365 118.915 25.8366 118.908 26.5398ZM137.757 36.3089C136.713 36.3089 135.782 36.1278 134.965 35.7656C134.149 35.3963 133.502 34.853 133.026 34.1357C132.558 33.4112 132.323 32.5092 132.323 31.4297C132.323 30.5206 132.49 29.7571 132.824 29.1392C133.158 28.5213 133.612 28.0241 134.188 27.6477C134.763 27.2713 135.416 26.9872 136.148 26.7955C136.887 26.6037 137.661 26.4688 138.47 26.3906C139.422 26.2912 140.189 26.1989 140.771 26.1136C141.354 26.0213 141.776 25.8864 142.039 25.7088C142.302 25.5312 142.433 25.2685 142.433 24.9205V24.8565C142.433 24.1818 142.22 23.6598 141.794 23.2905C141.375 22.9212 140.779 22.7365 140.004 22.7365C139.188 22.7365 138.538 22.9176 138.055 23.2798C137.572 23.6349 137.252 24.0824 137.096 24.6222L132.899 24.2812C133.112 23.2869 133.531 22.4276 134.156 21.7031C134.781 20.9716 135.587 20.4105 136.574 20.0199C137.568 19.6222 138.719 19.4233 140.026 19.4233C140.935 19.4233 141.805 19.5298 142.636 19.7429C143.474 19.956 144.216 20.2862 144.862 20.7337C145.516 21.1811 146.031 21.7564 146.407 22.4595C146.784 23.1555 146.972 23.9901 146.972 24.9631V36H142.668V33.7308H142.54C142.277 34.2422 141.926 34.6932 141.485 35.0838C141.045 35.4673 140.516 35.7692 139.898 35.9893C139.28 36.2024 138.566 36.3089 137.757 36.3089ZM139.056 33.1768C139.724 33.1768 140.313 33.0455 140.825 32.7827C141.336 32.5128 141.737 32.1506 142.029 31.696C142.32 31.2415 142.465 30.7266 142.465 30.1513V28.4148C142.323 28.5071 142.128 28.5923 141.879 28.6705C141.638 28.7415 141.365 28.8089 141.059 28.8729C140.754 28.9297 140.448 28.983 140.143 29.0327C139.838 29.0753 139.561 29.1143 139.312 29.1499C138.779 29.228 138.314 29.3523 137.916 29.5227C137.519 29.6932 137.21 29.924 136.99 30.2152C136.769 30.4993 136.659 30.8544 136.659 31.2805C136.659 31.8984 136.883 32.3707 137.33 32.6974C137.785 33.017 138.36 33.1768 139.056 33.1768ZM159.197 19.6364V23.0455H149.342V19.6364H159.197ZM151.579 15.7159H156.118V30.9716C156.118 31.3906 156.182 31.7173 156.309 31.9517C156.437 32.179 156.615 32.3388 156.842 32.4311C157.077 32.5234 157.346 32.5696 157.652 32.5696C157.865 32.5696 158.078 32.5518 158.291 32.5163C158.504 32.4737 158.667 32.4418 158.781 32.4205L159.495 35.7976C159.268 35.8686 158.948 35.9503 158.536 36.0426C158.124 36.142 157.623 36.2024 157.034 36.2237C155.94 36.2663 154.981 36.1207 154.157 35.7869C153.341 35.4531 152.705 34.9347 152.251 34.2315C151.796 33.5284 151.572 32.6406 151.579 31.5682V15.7159ZM169.181 36V14.1818H177.917C179.522 14.1818 180.861 14.4197 181.934 14.8956C183.006 15.3714 183.812 16.032 184.352 16.8771C184.892 17.7152 185.162 18.6811 185.162 19.7749C185.162 20.6271 184.991 21.3764 184.65 22.0227C184.309 22.6619 183.841 23.1875 183.244 23.5994C182.654 24.0043 181.98 24.2919 181.22 24.4624V24.6754C182.051 24.7109 182.828 24.9453 183.553 25.3786C184.284 25.8118 184.877 26.419 185.332 27.2003C185.787 27.9744 186.014 28.8977 186.014 29.9702C186.014 31.1278 185.726 32.1612 185.151 33.0703C184.583 33.9723 183.741 34.6861 182.626 35.2116C181.511 35.7372 180.137 36 178.503 36H169.181ZM173.794 32.2287H177.555C178.841 32.2287 179.778 31.9837 180.368 31.4936C180.957 30.9964 181.252 30.3359 181.252 29.5121C181.252 28.9084 181.106 28.3757 180.815 27.9141C180.524 27.4524 180.108 27.0902 179.569 26.8274C179.036 26.5646 178.4 26.4332 177.662 26.4332H173.794V32.2287ZM173.794 23.3118H177.214C177.846 23.3118 178.407 23.2017 178.897 22.9815C179.395 22.7543 179.785 22.4347 180.069 22.0227C180.36 21.6108 180.506 21.1172 180.506 20.5419C180.506 19.7536 180.225 19.1179 179.664 18.6349C179.11 18.152 178.322 17.9105 177.299 17.9105H173.794V23.3118ZM196.324 36.3196C194.669 36.3196 193.238 35.968 192.03 35.2649C190.83 34.5547 189.903 33.5675 189.25 32.3033C188.596 31.032 188.27 29.5582 188.27 27.8821C188.27 26.1918 188.596 24.7145 189.25 23.4503C189.903 22.179 190.83 21.1918 192.03 20.4886C193.238 19.7784 194.669 19.4233 196.324 19.4233C197.979 19.4233 199.406 19.7784 200.606 20.4886C201.814 21.1918 202.744 22.179 203.398 23.4503C204.051 24.7145 204.378 26.1918 204.378 27.8821C204.378 29.5582 204.051 31.032 203.398 32.3033C202.744 33.5675 201.814 34.5547 200.606 35.2649C199.406 35.968 197.979 36.3196 196.324 36.3196ZM196.345 32.804C197.098 32.804 197.726 32.5909 198.231 32.1648C198.735 31.7315 199.115 31.142 199.371 30.3963C199.633 29.6506 199.765 28.8018 199.765 27.8501C199.765 26.8984 199.633 26.0497 199.371 25.304C199.115 24.5582 198.735 23.9687 198.231 23.5355C197.726 23.1023 197.098 22.8857 196.345 22.8857C195.585 22.8857 194.946 23.1023 194.427 23.5355C193.916 23.9687 193.529 24.5582 193.266 25.304C193.01 26.0497 192.883 26.8984 192.883 27.8501C192.883 28.8018 193.01 29.6506 193.266 30.3963C193.529 31.142 193.916 31.7315 194.427 32.1648C194.946 32.5909 195.585 32.804 196.345 32.804ZM216.032 19.6364V23.0455H206.178V19.6364H216.032ZM208.415 15.7159H212.954V30.9716C212.954 31.3906 213.018 31.7173 213.145 31.9517C213.273 32.179 213.451 32.3388 213.678 32.4311C213.912 32.5234 214.182 32.5696 214.488 32.5696C214.701 32.5696 214.914 32.5518 215.127 32.5163C215.34 32.4737 215.503 32.4418 215.617 32.4205L216.331 35.7976C216.104 35.8686 215.784 35.9503 215.372 36.0426C214.96 36.142 214.459 36.2024 213.87 36.2237C212.776 36.2663 211.817 36.1207 210.993 35.7869C210.177 35.4531 209.541 34.9347 209.086 34.2315C208.632 33.5284 208.408 32.6406 208.415 31.5682V15.7159Z" fill="black"/>
</svg>
